<svg width="1024" height="1024" viewBox="0 0 1024 1024" fill="none" xmlns="http://www.w3.org/2000/svg">
  <circle cx="512" cy="512" r="512" fill="#070708"/>
  <circle cx="512" cy="512" r="394" fill="#F1EEE7" stroke="#FF1B12" stroke-width="100"/>
  <path d="M606 258C606 244.745 616.745 234 630 234H702C715.255 234 726 244.745 726 258V347.673C775.114 379.088 808 432.373 808 495V772C808 788.569 794.569 802 778 802H558C541.431 802 528 788.569 528 772V495C528 432.373 560.886 379.088 610 347.673V258H606Z" fill="#0B0B0C"/>
  <path d="M339 530C339 468.465 366.96 406 388 406H476C497.04 406 525 468.465 525 530C525 589.259 498.512 623.954 458 640.92V729.78C458 756.411 479.589 778 506.22 778H516C522.627 778 528 783.373 528 790V796C528 802.627 522.627 808 516 808H295C288.373 808 283 802.627 283 796V790C283 783.373 288.373 778 295 778H304.78C331.411 778 353 756.411 353 729.78V640.92C312.488 623.954 286 589.259 286 530H339Z" fill="#0B0B0C"/>
  <rect x="205" y="338.569" width="618" height="86" rx="43" transform="rotate(45 205 338.569)" fill="#FF1B12"/>
</svg>
